<svg width="28" height="28" viewBox="0 0 28 28" fill="none" xmlns="http://www.w3.org/2000/svg">
<rect width="28" height="28" rx="9.95626" fill="#202024"/>
<path d="M6.34523 21.5358C5.93905 21.3026 5.61128 21.0077 5.35934 20.6535C5.09069 20.2834 4.8966 19.8761 4.77577 19.4331C4.65495 18.9901 4.59582 18.5558 4.59582 18.1313V16.8171C4.59582 16.1026 4.42229 15.5893 4.07524 15.2783C3.72818 14.9674 3.19989 14.8106 2.48907 14.8106V13.1991C3.19989 13.1991 3.72818 13.0436 4.07524 12.7314C4.42229 12.4204 4.59582 11.9009 4.59582 11.1753V9.86113C4.59582 9.40456 4.66266 8.93318 4.79762 8.44699C4.93259 7.9608 5.14468 7.53754 5.43518 7.17722C5.67554 6.86626 5.99175 6.61082 6.38379 6.41215C6.77584 6.21348 7.24243 6.11353 7.78615 6.11353L8.07151 7.37836C7.7296 7.36725 7.46738 7.43636 7.28228 7.58443C7.09719 7.73251 6.9635 7.92748 6.87867 8.16811C6.79512 8.40997 6.74627 8.68021 6.73213 8.9776C6.718 9.27622 6.71157 9.56991 6.71157 9.8599V11.1741C6.71157 11.8133 6.54832 12.3809 6.22055 12.8745C5.89278 13.3693 5.38505 13.7445 4.69736 14.0024C5.39147 14.2603 5.90049 14.6342 6.22569 15.1228C6.54961 15.6115 6.71285 16.1754 6.71285 16.8159V18.1301C6.71285 18.42 6.73085 18.715 6.76684 19.0124C6.80283 19.311 6.87224 19.58 6.9725 19.8218C7.07276 20.0637 7.21158 20.2587 7.38768 20.4068C7.56378 20.5548 7.7913 20.6227 8.07151 20.6128L7.78615 21.8863C7.23215 21.8863 6.7527 21.7691 6.34652 21.5358H6.34523Z" fill="#8257E5"/>
<path d="M14.3792 16.5624H12.7583L12.1542 19.867H10.6181L11.2223 16.5624H9.31604V15.1766H11.4729L11.892 12.8876H9.9446V11.4858H12.1529L12.766 8.13306H14.2944L13.6812 11.4858H15.3098L15.9229 8.13306H17.459L16.8459 11.4858H18.684V12.8876H16.5849L16.1646 15.1766H18.0451V16.5624H15.9127L15.3085 19.867H13.7725L14.3766 16.5624H14.3792ZM13.0103 15.1766H14.6311L15.0502 12.8876H13.4216L13.0103 15.1766Z" fill="#C6ADFF"/>
<path d="M20.6046 20.4038C20.7807 20.2557 20.9195 20.0607 21.0198 19.8189C21.12 19.577 21.1907 19.3068 21.2293 19.0094C21.2679 18.7108 21.2884 18.4171 21.2884 18.1271V16.8129C21.2884 16.5019 21.3257 16.2058 21.4015 15.9269C21.4774 15.648 21.5931 15.3864 21.7499 15.1458C21.9067 14.9039 22.1034 14.688 22.3412 14.4967C22.579 14.3067 22.863 14.1438 23.1934 14.0093C22.9247 13.9019 22.6869 13.7724 22.48 13.6231C22.273 13.4725 22.0944 13.3059 21.9427 13.1233C21.719 12.8543 21.5532 12.5557 21.4478 12.225C21.3424 11.8942 21.2884 11.5438 21.2884 11.1736V9.85941C21.2884 9.56942 21.282 9.27574 21.2679 8.97711C21.2537 8.67849 21.2049 8.40948 21.1213 8.16762C21.0378 7.92576 20.9028 7.73079 20.7177 7.58394C20.5326 7.4371 20.2704 7.368 19.9285 7.37787L20.2138 6.11304C20.8128 6.11304 21.3167 6.23027 21.7255 6.46349C22.1342 6.69671 22.4671 7.01014 22.7242 7.40255C22.9697 7.7567 23.1458 8.15281 23.2487 8.59088C23.3515 9.02894 23.4042 9.4522 23.4042 9.86064V11.1748C23.4042 11.4759 23.4337 11.7412 23.4929 11.9732C23.552 12.204 23.6433 12.4002 23.7654 12.5618C23.9273 12.7827 24.1561 12.9431 24.4492 13.0456C24.7436 13.148 25.097 13.1986 25.5109 13.1986V14.8102C25.0469 14.8102 24.66 14.8731 24.3528 14.9989C24.0443 15.1248 23.8129 15.3284 23.6561 15.6073C23.5726 15.7578 23.5096 15.9343 23.4672 16.1354C23.4247 16.3366 23.4042 16.5636 23.4042 16.8166V18.1308C23.4042 18.5504 23.3399 18.9847 23.2114 19.4364C23.0828 19.888 22.8926 20.2903 22.6407 20.6457C22.3887 21.0159 22.0597 21.3157 21.6548 21.544C21.2486 21.7723 20.7691 21.887 20.2151 21.887L19.9298 20.6136C20.2036 20.6247 20.4298 20.5556 20.6059 20.4075L20.6046 20.4038Z" fill="#8257E5"/>
</svg>
